<mxfile host="Electron" agent="Mozilla/5.0 (Windows NT 10.0; Win64; x64) AppleWebKit/537.36 (KHTML, like Gecko) draw.io/24.7.8 Chrome/128.0.6613.36 Electron/32.0.1 Safari/537.36" version="24.7.8">
  <diagram name="Page-1" id="0783ab3e-0a74-02c8-0abd-f7b4e66b4bec">
    <mxGraphModel dx="1131" dy="863" grid="1" gridSize="10" guides="1" tooltips="1" connect="1" arrows="1" fold="1" page="1" pageScale="1" pageWidth="850" pageHeight="1100" background="none" math="0" shadow="0">
      <root>
        <mxCell id="0" />
        <mxCell id="1" parent="0" />
        <mxCell id="gm1T3LfkTSPdHzsFghl--12" style="edgeStyle=orthogonalEdgeStyle;rounded=0;orthogonalLoop=1;jettySize=auto;html=1;exitX=0.5;exitY=0.5;exitDx=0;exitDy=0;exitPerimeter=0;" edge="1" parent="1" source="gm1T3LfkTSPdHzsFghl--1" target="gm1T3LfkTSPdHzsFghl--5">
          <mxGeometry relative="1" as="geometry">
            <Array as="points">
              <mxPoint x="45" y="130" />
            </Array>
          </mxGeometry>
        </mxCell>
        <mxCell id="gm1T3LfkTSPdHzsFghl--13" value="Selects Level" style="edgeLabel;html=1;align=center;verticalAlign=middle;resizable=0;points=[];" vertex="1" connectable="0" parent="gm1T3LfkTSPdHzsFghl--12">
          <mxGeometry x="0.2113" relative="1" as="geometry">
            <mxPoint as="offset" />
          </mxGeometry>
        </mxCell>
        <mxCell id="gm1T3LfkTSPdHzsFghl--16" style="edgeStyle=orthogonalEdgeStyle;rounded=0;orthogonalLoop=1;jettySize=auto;html=1;exitX=0.5;exitY=0.5;exitDx=0;exitDy=0;exitPerimeter=0;entryX=0;entryY=0.5;entryDx=0;entryDy=0;" edge="1" parent="1" source="gm1T3LfkTSPdHzsFghl--1" target="gm1T3LfkTSPdHzsFghl--10">
          <mxGeometry relative="1" as="geometry" />
        </mxCell>
        <mxCell id="gm1T3LfkTSPdHzsFghl--17" value="Place Tower" style="edgeLabel;html=1;align=center;verticalAlign=middle;resizable=0;points=[];" vertex="1" connectable="0" parent="gm1T3LfkTSPdHzsFghl--16">
          <mxGeometry x="0.6246" relative="1" as="geometry">
            <mxPoint as="offset" />
          </mxGeometry>
        </mxCell>
        <mxCell id="gm1T3LfkTSPdHzsFghl--1" value="Player" style="shape=umlActor;verticalLabelPosition=bottom;verticalAlign=top;html=1;outlineConnect=0;" vertex="1" parent="1">
          <mxGeometry x="30" y="180" width="30" height="60" as="geometry" />
        </mxCell>
        <mxCell id="gm1T3LfkTSPdHzsFghl--4" value="Game Engine" style="swimlane;whiteSpace=wrap;html=1;" vertex="1" parent="1">
          <mxGeometry x="90" y="50" width="620" height="870" as="geometry" />
        </mxCell>
        <mxCell id="gm1T3LfkTSPdHzsFghl--26" style="edgeStyle=orthogonalEdgeStyle;rounded=0;orthogonalLoop=1;jettySize=auto;html=1;exitX=1;exitY=0;exitDx=0;exitDy=0;" edge="1" parent="gm1T3LfkTSPdHzsFghl--4" source="gm1T3LfkTSPdHzsFghl--5">
          <mxGeometry relative="1" as="geometry">
            <mxPoint x="690.7881532866379" y="110" as="targetPoint" />
          </mxGeometry>
        </mxCell>
        <mxCell id="gm1T3LfkTSPdHzsFghl--5" value="UI system" style="ellipse;whiteSpace=wrap;html=1;" vertex="1" parent="gm1T3LfkTSPdHzsFghl--4">
          <mxGeometry x="170" y="50" width="120" height="80" as="geometry" />
        </mxCell>
        <mxCell id="gm1T3LfkTSPdHzsFghl--28" style="edgeStyle=orthogonalEdgeStyle;rounded=0;orthogonalLoop=1;jettySize=auto;html=1;exitX=0.5;exitY=1;exitDx=0;exitDy=0;" edge="1" parent="gm1T3LfkTSPdHzsFghl--4" source="gm1T3LfkTSPdHzsFghl--8" target="gm1T3LfkTSPdHzsFghl--9">
          <mxGeometry relative="1" as="geometry" />
        </mxCell>
        <mxCell id="gm1T3LfkTSPdHzsFghl--8" value="Loads Level Data" style="ellipse;whiteSpace=wrap;html=1;" vertex="1" parent="gm1T3LfkTSPdHzsFghl--4">
          <mxGeometry x="170" y="140" width="120" height="80" as="geometry" />
        </mxCell>
        <mxCell id="gm1T3LfkTSPdHzsFghl--9" value="Round System" style="ellipse;whiteSpace=wrap;html=1;" vertex="1" parent="gm1T3LfkTSPdHzsFghl--4">
          <mxGeometry x="170" y="270" width="120" height="80" as="geometry" />
        </mxCell>
        <mxCell id="gm1T3LfkTSPdHzsFghl--10" value="Towers&lt;span style=&quot;color: rgba(0, 0, 0, 0); font-family: monospace; font-size: 0px; text-align: start; text-wrap: nowrap;&quot;&gt;%3CmxGraphModel%3E%3Croot%3E%3CmxCell%20id%3D%220%22%2F%3E%3CmxCell%20id%3D%221%22%20parent%3D%220%22%2F%3E%3CmxCell%20id%3D%222%22%20value%3D%22Round%20System%22%20style%3D%22ellipse%3BwhiteSpace%3Dwrap%3Bhtml%3D1%3B%22%20vertex%3D%221%22%20parent%3D%221%22%3E%3CmxGeometry%20x%3D%22200%22%20y%3D%22300%22%20width%3D%22120%22%20height%3D%2280%22%20as%3D%22geometry%22%2F%3E%3C%2FmxCell%3E%3C%2Froot%3E%3C%2FmxGraphModel%3E&lt;/span&gt;" style="ellipse;whiteSpace=wrap;html=1;" vertex="1" parent="gm1T3LfkTSPdHzsFghl--4">
          <mxGeometry x="70" y="410" width="120" height="80" as="geometry" />
        </mxCell>
        <mxCell id="gm1T3LfkTSPdHzsFghl--11" value="Spawn Enemies" style="ellipse;whiteSpace=wrap;html=1;" vertex="1" parent="gm1T3LfkTSPdHzsFghl--4">
          <mxGeometry x="440" y="600" width="120" height="80" as="geometry" />
        </mxCell>
        <mxCell id="gm1T3LfkTSPdHzsFghl--31" value="Start Round" style="ellipse;whiteSpace=wrap;html=1;" vertex="1" parent="gm1T3LfkTSPdHzsFghl--4">
          <mxGeometry x="440" y="510" width="120" height="80" as="geometry" />
        </mxCell>
        <mxCell id="gm1T3LfkTSPdHzsFghl--32" value="End Round" style="ellipse;whiteSpace=wrap;html=1;" vertex="1" parent="gm1T3LfkTSPdHzsFghl--4">
          <mxGeometry x="440" y="420" width="120" height="80" as="geometry" />
        </mxCell>
        <mxCell id="gm1T3LfkTSPdHzsFghl--33" value="Signal Game Over" style="ellipse;whiteSpace=wrap;html=1;" vertex="1" parent="gm1T3LfkTSPdHzsFghl--4">
          <mxGeometry x="440" y="330" width="120" height="80" as="geometry" />
        </mxCell>
        <mxCell id="gm1T3LfkTSPdHzsFghl--36" style="edgeStyle=orthogonalEdgeStyle;rounded=0;orthogonalLoop=1;jettySize=auto;html=1;exitX=0.5;exitY=1;exitDx=0;exitDy=0;dashed=1;dashPattern=8 8;entryX=0;entryY=0.5;entryDx=0;entryDy=0;startArrow=open;startFill=0;endArrow=none;endFill=0;" edge="1" parent="gm1T3LfkTSPdHzsFghl--4" source="gm1T3LfkTSPdHzsFghl--9" target="gm1T3LfkTSPdHzsFghl--33">
          <mxGeometry relative="1" as="geometry">
            <mxPoint x="240" y="360" as="sourcePoint" />
            <mxPoint x="450" y="580" as="targetPoint" />
            <Array as="points">
              <mxPoint x="230" y="370" />
            </Array>
          </mxGeometry>
        </mxCell>
        <mxCell id="gm1T3LfkTSPdHzsFghl--37" value="&amp;lt;&amp;lt;Extends&amp;gt;&amp;gt;" style="edgeLabel;html=1;align=center;verticalAlign=middle;resizable=0;points=[];" vertex="1" connectable="0" parent="gm1T3LfkTSPdHzsFghl--36">
          <mxGeometry x="0.4971" y="-4" relative="1" as="geometry">
            <mxPoint x="-1" y="-14" as="offset" />
          </mxGeometry>
        </mxCell>
        <mxCell id="gm1T3LfkTSPdHzsFghl--46" style="edgeStyle=orthogonalEdgeStyle;rounded=0;orthogonalLoop=1;jettySize=auto;html=1;exitX=0.5;exitY=0;exitDx=0;exitDy=0;entryX=0.5;entryY=1;entryDx=0;entryDy=0;dashed=1;endArrow=open;endFill=0;" edge="1" parent="gm1T3LfkTSPdHzsFghl--4" source="gm1T3LfkTSPdHzsFghl--45" target="gm1T3LfkTSPdHzsFghl--10">
          <mxGeometry relative="1" as="geometry" />
        </mxCell>
        <mxCell id="gm1T3LfkTSPdHzsFghl--47" value="&amp;lt;&amp;lt;Includes&amp;gt;&amp;gt;" style="edgeLabel;html=1;align=center;verticalAlign=middle;resizable=0;points=[];" vertex="1" connectable="0" parent="gm1T3LfkTSPdHzsFghl--46">
          <mxGeometry x="0.0661" y="-1" relative="1" as="geometry">
            <mxPoint as="offset" />
          </mxGeometry>
        </mxCell>
        <mxCell id="gm1T3LfkTSPdHzsFghl--51" style="edgeStyle=orthogonalEdgeStyle;rounded=0;orthogonalLoop=1;jettySize=auto;html=1;exitX=0.341;exitY=0.994;exitDx=0;exitDy=0;exitPerimeter=0;startArrow=open;startFill=0;dashed=1;endArrow=none;endFill=0;" edge="1" parent="gm1T3LfkTSPdHzsFghl--4" source="gm1T3LfkTSPdHzsFghl--45" target="gm1T3LfkTSPdHzsFghl--50">
          <mxGeometry relative="1" as="geometry">
            <Array as="points" />
          </mxGeometry>
        </mxCell>
        <mxCell id="gm1T3LfkTSPdHzsFghl--52" value="&amp;lt;&amp;lt;Extends&amp;gt;&amp;gt;" style="edgeLabel;html=1;align=center;verticalAlign=middle;resizable=0;points=[];" vertex="1" connectable="0" parent="gm1T3LfkTSPdHzsFghl--51">
          <mxGeometry x="-0.0485" y="-4" relative="1" as="geometry">
            <mxPoint x="-27" as="offset" />
          </mxGeometry>
        </mxCell>
        <mxCell id="gm1T3LfkTSPdHzsFghl--45" value="Track and shoot" style="ellipse;whiteSpace=wrap;html=1;" vertex="1" parent="gm1T3LfkTSPdHzsFghl--4">
          <mxGeometry x="70" y="550" width="120" height="80" as="geometry" />
        </mxCell>
        <mxCell id="gm1T3LfkTSPdHzsFghl--50" value="Split Enemies" style="ellipse;whiteSpace=wrap;html=1;" vertex="1" parent="gm1T3LfkTSPdHzsFghl--4">
          <mxGeometry x="10" y="750" width="120" height="80" as="geometry" />
        </mxCell>
        <mxCell id="gm1T3LfkTSPdHzsFghl--27" style="edgeStyle=orthogonalEdgeStyle;rounded=0;orthogonalLoop=1;jettySize=auto;html=1;exitX=0.5;exitY=0.5;exitDx=0;exitDy=0;exitPerimeter=0;entryX=1;entryY=0.5;entryDx=0;entryDy=0;" edge="1" parent="1" source="gm1T3LfkTSPdHzsFghl--19" target="gm1T3LfkTSPdHzsFghl--8">
          <mxGeometry relative="1" as="geometry">
            <Array as="points">
              <mxPoint x="795" y="160" />
              <mxPoint x="590" y="160" />
              <mxPoint x="590" y="230" />
            </Array>
          </mxGeometry>
        </mxCell>
        <mxCell id="gm1T3LfkTSPdHzsFghl--19" value="Enviroment" style="shape=umlActor;verticalLabelPosition=bottom;verticalAlign=top;html=1;outlineConnect=0;" vertex="1" parent="1">
          <mxGeometry x="780" y="120" width="30" height="60" as="geometry" />
        </mxCell>
        <mxCell id="gm1T3LfkTSPdHzsFghl--29" style="edgeStyle=orthogonalEdgeStyle;rounded=0;orthogonalLoop=1;jettySize=auto;html=1;exitX=1;exitY=0.5;exitDx=0;exitDy=0;" edge="1" parent="1" source="gm1T3LfkTSPdHzsFghl--9" target="gm1T3LfkTSPdHzsFghl--19">
          <mxGeometry relative="1" as="geometry">
            <Array as="points">
              <mxPoint x="480" y="350" />
              <mxPoint x="480" y="250" />
              <mxPoint x="795" y="250" />
            </Array>
          </mxGeometry>
        </mxCell>
        <mxCell id="gm1T3LfkTSPdHzsFghl--39" style="edgeStyle=orthogonalEdgeStyle;rounded=0;orthogonalLoop=1;jettySize=auto;html=1;dashed=1;dashPattern=8 8;entryX=0;entryY=0.5;entryDx=0;entryDy=0;startArrow=open;startFill=0;endArrow=none;endFill=0;" edge="1" parent="1" target="gm1T3LfkTSPdHzsFghl--32">
          <mxGeometry relative="1" as="geometry">
            <mxPoint x="320" y="400" as="sourcePoint" />
            <mxPoint x="550" y="420" as="targetPoint" />
            <Array as="points">
              <mxPoint x="330" y="500" />
            </Array>
          </mxGeometry>
        </mxCell>
        <mxCell id="gm1T3LfkTSPdHzsFghl--40" value="&amp;lt;&amp;lt;Extends&amp;gt;&amp;gt;" style="edgeLabel;html=1;align=center;verticalAlign=middle;resizable=0;points=[];" vertex="1" connectable="0" parent="gm1T3LfkTSPdHzsFghl--39">
          <mxGeometry x="0.4971" y="-4" relative="1" as="geometry">
            <mxPoint x="21" y="-14" as="offset" />
          </mxGeometry>
        </mxCell>
        <mxCell id="gm1T3LfkTSPdHzsFghl--41" style="edgeStyle=orthogonalEdgeStyle;rounded=0;orthogonalLoop=1;jettySize=auto;html=1;dashed=1;dashPattern=8 8;entryX=0;entryY=0.5;entryDx=0;entryDy=0;startArrow=open;startFill=0;endArrow=none;endFill=0;" edge="1" parent="1" target="gm1T3LfkTSPdHzsFghl--31">
          <mxGeometry relative="1" as="geometry">
            <mxPoint x="320" y="400" as="sourcePoint" />
            <mxPoint x="550" y="510" as="targetPoint" />
            <Array as="points">
              <mxPoint x="330" y="590" />
            </Array>
          </mxGeometry>
        </mxCell>
        <mxCell id="gm1T3LfkTSPdHzsFghl--42" value="&amp;lt;&amp;lt;Extends&amp;gt;&amp;gt;" style="edgeLabel;html=1;align=center;verticalAlign=middle;resizable=0;points=[];" vertex="1" connectable="0" parent="gm1T3LfkTSPdHzsFghl--41">
          <mxGeometry x="0.4971" y="-4" relative="1" as="geometry">
            <mxPoint x="41" y="-14" as="offset" />
          </mxGeometry>
        </mxCell>
        <mxCell id="gm1T3LfkTSPdHzsFghl--43" style="edgeStyle=orthogonalEdgeStyle;rounded=0;orthogonalLoop=1;jettySize=auto;html=1;dashed=1;dashPattern=8 8;entryX=0;entryY=0.5;entryDx=0;entryDy=0;startArrow=open;startFill=0;endArrow=none;endFill=0;" edge="1" parent="1" target="gm1T3LfkTSPdHzsFghl--11">
          <mxGeometry relative="1" as="geometry">
            <mxPoint x="320" y="400" as="sourcePoint" />
            <mxPoint x="550" y="600" as="targetPoint" />
            <Array as="points">
              <mxPoint x="330" y="680" />
            </Array>
          </mxGeometry>
        </mxCell>
        <mxCell id="gm1T3LfkTSPdHzsFghl--44" value="&amp;lt;&amp;lt;Extends&amp;gt;&amp;gt;" style="edgeLabel;html=1;align=center;verticalAlign=middle;resizable=0;points=[];" vertex="1" connectable="0" parent="gm1T3LfkTSPdHzsFghl--43">
          <mxGeometry x="0.4971" y="-4" relative="1" as="geometry">
            <mxPoint x="66" y="-14" as="offset" />
          </mxGeometry>
        </mxCell>
        <mxCell id="gm1T3LfkTSPdHzsFghl--49" style="edgeStyle=orthogonalEdgeStyle;rounded=0;orthogonalLoop=1;jettySize=auto;html=1;exitX=0.5;exitY=1;exitDx=0;exitDy=0;" edge="1" parent="1" source="gm1T3LfkTSPdHzsFghl--45" target="gm1T3LfkTSPdHzsFghl--19">
          <mxGeometry relative="1" as="geometry">
            <Array as="points">
              <mxPoint x="220" y="750" />
              <mxPoint x="795" y="750" />
            </Array>
          </mxGeometry>
        </mxCell>
        <mxCell id="gm1T3LfkTSPdHzsFghl--53" style="edgeStyle=orthogonalEdgeStyle;rounded=0;orthogonalLoop=1;jettySize=auto;html=1;exitX=0;exitY=1;exitDx=0;exitDy=0;entryX=0.5;entryY=0.5;entryDx=0;entryDy=0;entryPerimeter=0;" edge="1" parent="1" source="gm1T3LfkTSPdHzsFghl--31" target="gm1T3LfkTSPdHzsFghl--1">
          <mxGeometry relative="1" as="geometry">
            <Array as="points">
              <mxPoint x="300" y="628" />
              <mxPoint x="300" y="440" />
              <mxPoint x="200" y="440" />
              <mxPoint x="200" y="210" />
            </Array>
          </mxGeometry>
        </mxCell>
      </root>
    </mxGraphModel>
  </diagram>
</mxfile>
